<?xml version="1.0" standalone="no"?><!DOCTYPE svg PUBLIC "-//W3C//DTD SVG 1.1//EN" "http://www.w3.org/Graphics/SVG/1.1/DTD/svg11.dtd"><svg class="icon" width="200px" height="200.00px" viewBox="0 0 1024 1024" version="1.1" xmlns="http://www.w3.org/2000/svg"><path fill="#515151" d="M469.333333 106.666667v810.666666a21.333333 21.333333 0 0 1-36.42 15.086667L225.833333 725.333333H53.333333a53.393333 53.393333 0 0 1-53.333333-53.333333V352a53.393333 53.393333 0 0 1 53.333333-53.333333h172.5l207.08-207.086667A21.333333 21.333333 0 0 1 469.333333 106.666667z m146.793334 296.2a21.333333 21.333333 0 0 0-3.526667 29.96 127.366667 127.366667 0 0 1 0 158.346666 21.333333 21.333333 0 0 0 33.493333 26.433334 170.733333 170.733333 0 0 0 0-211.213334 21.333333 21.333333 0 0 0-29.966666-3.526666zM853.333333 512a340.32 340.32 0 0 0-100-241.333333 346.585333 346.585333 0 0 0-22.046666-20.213334 21.333333 21.333333 0 1 0-27.446667 32.666667c6.666667 5.586667 13.146667 11.553333 19.333333 17.726667C779.6 357.22 810.666667 432.22 810.666667 512s-31.066667 154.78-87.48 211.186667c-6.173333 6.173333-12.666667 12.14-19.333334 17.726666a21.333333 21.333333 0 1 0 27.446667 32.666667 346.585333 346.585333 0 0 0 22.046667-20.213333 340.32 340.32 0 0 0 100-241.333334z m133.173334-192.666667a508.806667 508.806667 0 0 0-112.466667-169.386666 518.346667 518.346667 0 0 0-57.533333-49.653334 21.333333 21.333333 0 0 0-25.42 34.273334 474.246667 474.246667 0 0 1 52.78 45.553333c182.993333 182.993333 182.993333 480.74 0 663.733333a474.853333 474.853333 0 0 1-52.78 45.553334 21.333333 21.333333 0 0 0 25.413333 34.273333 519.026667 519.026667 0 0 0 57.54-49.653333 512.546667 512.546667 0 0 0 112.466667-554.666667z"  /></svg>