<?xml version="1.0" standalone="no"?><!DOCTYPE svg PUBLIC "-//W3C//DTD SVG 1.1//EN" "http://www.w3.org/Graphics/SVG/1.1/DTD/svg11.dtd"><svg t="1596920108387" class="icon" viewBox="0 0 1064 1024" version="1.1" xmlns="http://www.w3.org/2000/svg" p-id="14296" xmlns:xlink="http://www.w3.org/1999/xlink" width="133" height="128"><defs><style type="text/css"></style></defs><path d="M797.844409 1015.290542a107.068269 107.068269 0 0 1-46.450442-11.61261L532.496258 894.171014l-220.465412 109.042413a99.578136 99.578136 0 0 1-104.978-7.896575 102.365162 102.365162 0 0 1-39.308686-99.636199l45.056929-233.703787L40.063506 500.96802a106.31345 106.31345 0 0 1-26.82513-102.829667l0.348378-1.161261a100.100703 100.100703 0 0 1 81.288274-69.03697l239.916535-43.605352L442.498526 65.61125A101.668406 101.668406 0 0 1 532.205942 8.709458a98.70719 98.70719 0 0 1 90.055795 57.482422l107.358585 218.026764 239.974597 41.921524a97.720118 97.720118 0 0 1 79.952824 69.675663 101.145838 101.145838 0 0 1-25.025176 103.178045l-0.58063 0.580631-172.215015 162.170106 43.489227 234.342482a100.507144 100.507144 0 0 1-38.902246 98.707189 92.262191 92.262191 0 0 1-58.643683 20.380132zM532.438195 830.243593l244.271263 121.932411a52.256748 52.256748 0 0 0 21.076888 5.806305 35.360399 35.360399 0 0 0 22.760717-7.664323l1.103198-0.929009a43.953731 43.953731 0 0 0 17.418916-43.140848l-49.179406-264.825584 194.453164-183.130869a44.360172 44.360172 0 0 0 10.683602-45.347244l-0.522568-1.683829a40.005443 40.005443 0 0 0-33.212066-29.031526h-1.103198l-269.006124-47.031073-121.119528-245.72284a42.269902 42.269902 0 0 0-37.915174-23.689725 44.302109 44.302109 0 0 0-38.61193 25.199365L373.34543 335.31413l-270.4577 49.121343a42.386029 42.386029 0 0 0-34.837832 29.960535 49.876162 49.876162 0 0 0 12.193241 45.985938l194.627353 181.388977-51.095486 264.94171a44.998866 44.998866 0 0 0 17.418916 43.024722 42.560218 42.560218 0 0 0 44.360172 3.135405l0.812883-0.464504 246.129281-121.932411z" p-id="14297"></path></svg>