<?xml version="1.0" standalone="no"?><!DOCTYPE svg PUBLIC "-//W3C//DTD SVG 1.1//EN" "http://www.w3.org/Graphics/SVG/1.1/DTD/svg11.dtd"><svg t="1595583346635" class="icon" viewBox="0 0 1024 1024" version="1.1" xmlns="http://www.w3.org/2000/svg" p-id="6949" xmlns:xlink="http://www.w3.org/1999/xlink" width="200" height="200"><defs><style type="text/css"></style></defs><path fill="#409EFF" d="M512 1024C229.2 1024 0 794.8 0 512S229.2 0 512 0s512 229.2 512 512-229.2 512-512 512z m-51.2-665.6c0-28.3-22.9-51.2-51.2-51.2-28.3 0-51.2 22.9-51.2 51.2v307.2c0 28.3 22.9 51.2 51.2 51.2 28.3 0 51.2-22.9 51.2-51.2V358.4z m204.8 0c0-28.3-22.9-51.2-51.2-51.2-28.3 0-51.2 22.9-51.2 51.2v307.2c0 28.3 22.9 51.2 51.2 51.2 28.3 0 51.2-22.9 51.2-51.2V358.4z" p-id="6950"></path></svg>
