<?xml version="1.0" standalone="no"?><!DOCTYPE svg PUBLIC "-//W3C//DTD SVG 1.1//EN" "http://www.w3.org/Graphics/SVG/1.1/DTD/svg11.dtd"><svg t="1596927462162" class="icon" viewBox="0 0 1024 1024" version="1.1" xmlns="http://www.w3.org/2000/svg" p-id="3938" xmlns:xlink="http://www.w3.org/1999/xlink" width="200" height="200"><defs><style type="text/css"></style></defs><path d="M330.057143 679.277714c-20.772571 12.013714-35.602286 30.811429-40.832 51.913143-10.587429 41.984 20.736 81.517714 70.345143 88.356572 20.297143 2.797714 38.144 3.2 53.430857 1.28 32.365714-4.114286 58.806857-19.017143 79.780571-45.513143 14.244571-18.285714 21.778286-39.862857 21.833143-61.988572l0.146286-81.225143c-91.922286 13.220571-153.965714 29.202286-184.685714 47.177143z m185.508571-482.596571c0.036571-12.763429 14.811429-18.742857 22.272-8.96l180.443429 217.691428c37.12 41.179429 48.585143 98.322286 27.666286 145.810286-16.347429 35.730286-48.530286 57.344-94.976 64.365714-8.009143 1.225143-15.853714-3.821714-17.517715-11.245714-1.645714-7.424 3.474286-14.427429 11.392-15.634286 37.193143-5.741714 61.549714-22.180571 74.368-49.846857 17.005714-37.814857 8.374857-83.328-21.046857-116.114285l-157.129143-188.233143 4.242286 479.085714c0.237714 27.501714-8.850286 54.290286-26.368 76.982857-25.6 32.493714-59.794286 51.675429-101.595429 56.868572-18.962286 2.377143-40.228571 1.865143-63.817142-1.389715-67.401143-9.289143-109.403429-62.537143-94.500572-119.04 7.332571-28.397714 27.483429-53.705143 55.424-69.906285 36.022857-21.211429 102.582857-38.4 200.393143-52.443429l0.749714-407.990857z" fill="#979797" p-id="3939"></path></svg>