<?xml version="1.0" standalone="no"?><!DOCTYPE svg PUBLIC "-//W3C//DTD SVG 1.1//EN" "http://www.w3.org/Graphics/SVG/1.1/DTD/svg11.dtd"><svg class="icon" width="128px" height="128.00px" viewBox="0 0 1024 1024" version="1.1" xmlns="http://www.w3.org/2000/svg"><path fill="#409EFF" d="M512 76.8C271.36 76.8 76.8 271.36 76.8 512s194.56 435.2 435.2 435.2c115.2 0 225.28-46.08 307.2-128 20.48-20.48 20.48-51.2 0-71.68-20.48-20.48-51.2-20.48-71.68 0-64 61.44-145.92 97.28-235.52 97.28-184.32 0-332.8-148.48-332.8-332.8S327.68 179.2 512 179.2c99.84 0 189.44 43.52 250.88 112.64l-192 89.6c-20.48 7.68-20.48 38.4 0 46.08l299.52 128c7.68 5.12 15.36 7.68 25.6 7.68 28.16 0 51.2-23.04 51.2-51.2 0-240.64-194.56-435.2-435.2-435.2z" /></svg>