<?xml version="1.0" standalone="no"?><!DOCTYPE svg PUBLIC "-//W3C//DTD SVG 1.1//EN" "http://www.w3.org/Graphics/SVG/1.1/DTD/svg11.dtd"><svg t="1595819823012" class="icon" viewBox="0 0 1024 1024" version="1.1" xmlns="http://www.w3.org/2000/svg" p-id="21078" xmlns:xlink="http://www.w3.org/1999/xlink" width="200" height="200"><defs><style type="text/css"></style></defs><path d="M512.3 56.9c61.4 0 121 12 177.1 35.7 54.2 22.9 102.8 55.7 144.6 97.5s74.6 90.5 97.5 144.6c23.7 56.1 35.7 115.7 35.7 177.1s-12 121-35.7 177.1c-22.9 54.2-55.7 102.8-97.5 144.6s-90.5 74.6-144.6 97.5c-56.1 23.7-115.7 35.7-177.1 35.7s-121-12-177.1-35.7c-54.2-22.9-102.8-55.7-144.6-97.5-41.8-41.7-74.7-90.3-97.6-144.5-23.7-56.1-35.7-115.7-35.7-177.1s12-121 35.7-177.1c22.9-54.2 55.7-102.8 97.5-144.6s90.5-74.6 144.6-97.5c56.2-23.8 115.8-35.8 177.2-35.8m0-40c-273.4 0-495 221.6-495 495s221.6 495 495 495 495-221.6 495-495-221.6-495-495-495z" fill="#999999" p-id="21079"></path><path d="M509.6 626.5c-19.2 0-37.3-7.5-50.8-21L329.2 476c-7.8-7.8-7.8-20.5 0-28.3s20.5-7.8 28.3 0L487 577.3c6 6 14 9.3 22.5 9.3s16.5-3.3 22.5-9.3l0.1-0.1 135-133.6c7.9-7.8 20.5-7.7 28.3 0.2 7.8 7.9 7.7 20.5-0.2 28.3l-135 133.5c-13.4 13.5-31.4 20.9-50.6 20.9z" fill="#999999" p-id="21080"></path></svg>