<?xml version="1.0" standalone="no"?><!DOCTYPE svg PUBLIC "-//W3C//DTD SVG 1.1//EN" "http://www.w3.org/Graphics/SVG/1.1/DTD/svg11.dtd"><svg class="icon" width="128px" height="128.00px" viewBox="0 0 1024 1024" version="1.1" xmlns="http://www.w3.org/2000/svg"><path fill="#409EFF" d="M770.585859 372.984242a362.020202 362.020202 0 0 0-190.836364 138.964041 314.388687 314.388687 0 0 1-43.442424 51.717172s-5.171717 7.964444-22.755556 29.737373A462.920404 462.920404 0 0 1 149.979798 770.585859h-103.434343v-103.434344h103.434343a360.158384 360.158384 0 0 0 296.339394-155.151515 266.757172 266.757172 0 0 0 44.476768-51.717172s8.791919-12.25697 21.20404-31.754343v3.930505a461.679192 461.679192 0 0 1 258.585859-166.787879V149.979798l206.868686 155.151515-206.868686 155.151515V373.03596zM149.979798 356.848485h-103.434343v-103.434344h103.434343a459.920808 459.920808 0 0 1 309.785859 120.552728 314.905859 314.905859 0 0 1-72.404041 74.834747A355.452121 355.452121 0 0 0 149.979798 356.848485z m620.606061 294.787879v-87.919192l206.868686 155.151515-206.868686 155.151515v-115.691313a456.352323 456.352323 0 0 1-212.557576-117.087677 455.421414 455.421414 0 0 1 70.852525-73.800404A358.244848 358.244848 0 0 0 770.585859 651.636364z" /></svg>