<?xml version="1.0" standalone="no"?><!DOCTYPE svg PUBLIC "-//W3C//DTD SVG 1.1//EN" "http://www.w3.org/Graphics/SVG/1.1/DTD/svg11.dtd"><svg class="icon" width="128px" height="128.00px" viewBox="0 0 1024 1024" version="1.1" xmlns="http://www.w3.org/2000/svg"><path fill="#409EFF" d="M918.186667 269.653333l-136.533334-30.72c-13.653333-3.413333-27.306667 0-37.546666 6.826667-10.24 6.826667-20.48 20.48-23.893334 34.133333l-23.893333 129.706667c-6.826667 27.306667 13.653333 54.613333 40.96 61.44h10.24c23.893333 0 44.373333-17.066667 51.2-40.96l3.413333-10.24c23.893333 58.026667 27.306667 122.88 10.24 184.32-40.96 157.013333-208.213333 252.586667-372.053333 208.213333-27.306667-6.826667-54.613333 10.24-61.44 37.546667-6.826667 27.306667 10.24 54.613333 37.546667 61.44 37.546667 10.24 71.68 13.653333 109.226666 13.653333 177.493333 0 341.333333-116.053333 389.12-293.546666 23.893333-85.333333 13.653333-177.493333-20.48-259.413334l6.826667 3.413334c27.306667 6.826667 54.613333-10.24 61.44-37.546667 0-34.133333-17.066667-61.44-44.373333-68.266667zM300.373333 593.92c-27.306667-6.826667-54.613333 10.24-61.44 37.546667l-3.413333 6.826666c-27.306667-58.026667-34.133333-129.706667-17.066667-194.56 40.96-157.013333 208.213333-252.586667 372.053334-208.213333 27.306667 6.826667 54.613333-10.24 61.44-37.546667 10.24-27.306667-6.826667-54.613333-34.133334-61.44-218.453333-58.026667-440.32 68.266667-498.346666 279.893334-23.893333 92.16-13.653333 191.146667 27.306666 273.066666l-10.24-3.413333c-27.306667-6.826667-54.613333 10.24-61.44 37.546667-10.24 27.306667 6.826667 54.613333 34.133334 61.44l136.533333 34.133333h13.653333c10.24 0 17.066667-3.413333 27.306667-6.826667 10.24-3.413333 20.48-13.653333 20.48-27.306666l30.72-126.293334c6.826667-30.72-10.24-58.026667-37.546667-64.853333zM460.8 409.6v204.8c0 27.306667 23.893333 51.2 51.2 51.2s51.2-23.893333 51.2-51.2v-204.8c0-27.306667-23.893333-51.2-51.2-51.2s-51.2 23.893333-51.2 51.2z" /></svg>