<?xml version="1.0" standalone="no"?><!DOCTYPE svg PUBLIC "-//W3C//DTD SVG 1.1//EN" "http://www.w3.org/Graphics/SVG/1.1/DTD/svg11.dtd"><svg t="1595965823227" class="icon" viewBox="0 0 1024 1024" version="1.1" xmlns="http://www.w3.org/2000/svg" p-id="17984" xmlns:xlink="http://www.w3.org/1999/xlink" width="200" height="200"><defs><style type="text/css"></style></defs><path d="M519.12500029 63.4625h328.34999971c45.26250029-1.27500029 75.825 7.23750029 91.6875 25.5375 15.90000029 18.3375 22.31250029 47.99999971 19.19999971 89.1v297c-5.5125 34.57500029-27.93750029 51.075-55.42499971 51.075-27.45 0-50.0625-16.425-55.50000029-51.075V170.82500029H519.12500029c-29.1375 0-43.57500029-33.82499971-43.57500029-50.10000029 0-26.1 10.95000029-52.61249971 43.57500029-57.2625zM504.87499971 960.5375H176.525c-39.4875 0.82500029-67.87500029-6.67500029-85.08750029-22.5-17.2125-15.75-25.80000029-46.50000029-25.79999942-92.1375v-297c5.5125-34.72499971 27.93750029-51.075 55.42499971-51.075 27.45 0 49.05 6.59999971 55.50000029 51.075v304.27499971h328.31249942c33.00000029 4.8375 41.36249971 28.27500029 42.90000029 54.37500029 1.53749971 26.02500029-18.07499971 46.27500029-42.90000029 52.9875z" fill="#ffffff" p-id="17985"></path></svg>
