<?xml version="1.0" standalone="no"?><!DOCTYPE svg PUBLIC "-//W3C//DTD SVG 1.1//EN" "http://www.w3.org/Graphics/SVG/1.1/DTD/svg11.dtd"><svg t="1595968014193" class="icon" viewBox="0 0 1024 1024" version="1.1" xmlns="http://www.w3.org/2000/svg" p-id="18891" xmlns:xlink="http://www.w3.org/1999/xlink" width="200" height="200"><defs><style type="text/css"></style></defs><path fill="#ffffff" d="M991.245655 425.29623l-70.68531 71.600505c0.969029 11.574518 1.749636 23.149035 1.749636 34.723553A403.762244 403.762244 0 1 1 518.547737 122.743722a358.271698 358.271698 0 0 1 241.019142 79.406575l-112.138234 16.419664a40.887657 40.887657 0 0 0 5.652672 81.290799 41.479841 41.479841 0 0 0 5.760341-0.269175l188.422381-27.455833a40.860739 40.860739 0 0 0 34.265955-46.29807l-26.917483-190.844954a40.376224 40.376224 0 1 0-79.944924 11.574517l11.036168 78.329876A427.180454 427.180454 0 0 0 518.547737 40.914574 491.567073 491.567073 0 1 0 991.245655 425.29623z" p-id="18892"></path></svg>
